<svg width="104" height="137" viewBox="0 0 104 137" fill="none" xmlns="http://www.w3.org/2000/svg">
<path fill-rule="evenodd" clip-rule="evenodd" d="M27.6587 0.0913069C10.6696 2.56392 -3.16736 9.53547 -14.2538 21.2093C-24.2545 31.7399 -30.8483 45.6919 -32.6521 60.1388C-33.3701 65.8874 -32.9302 76.8617 -31.76 82.3913C-26.6171 106.7 -9.27799 126.162 14.0751 133.838C22.0474 136.458 25.6948 136.999 35.4034 137C42.1226 137.001 44.6525 136.858 47.5738 136.312C75.8422 131.032 97.421 109.713 103.148 81.406C103.895 77.7188 104 76.1234 104 68.5224C104 60.9019 103.896 59.3311 103.141 55.6019C97.5066 27.739 76.408 6.57076 48.6599 0.94037C45.3721 0.273303 43.1526 0.103488 36.6942 0.0259653C32.3332 -0.0264551 28.2672 0.00307822 27.6587 0.0913069ZM47.9293 6.0927C60.5323 8.82373 70.6005 14.0779 79.3878 22.5095C88.78 31.5214 95.1359 42.987 97.9889 56.0637C98.7129 59.3824 98.8143 60.913 98.8143 68.5224C98.8143 76.1126 98.7118 77.6668 97.9952 80.9497C95.0957 94.2331 89.1086 105.15 79.792 114.143C70.9457 122.68 60.3269 128.324 48.1923 130.936C43.5686 131.931 32.7853 132.311 27.5897 131.662C14.047 129.971 1.31059 123.81 -8.61563 114.15C-17.9289 105.086 -24.0126 94.019 -26.7981 81.0738C-27.5214 77.7129 -27.6342 76.0935 -27.6467 68.8916C-27.6622 59.9687 -27.3484 57.4373 -25.3831 50.6183C-19.3185 29.5803 -2.29147 12.9025 19.0693 7.07761C25.2445 5.39352 28.4538 5.04762 36.6942 5.17719C42.7256 5.27207 44.9977 5.45738 47.9293 6.0927ZM32.8727 25.6462C32.8016 25.7773 32.1189 28.4182 31.3562 31.5144C30.5128 34.9379 29.7929 37.144 29.5196 37.144C29.2722 37.144 26.1178 36.3865 22.5102 35.4607C18.9023 34.5352 15.7594 33.8511 15.5259 33.9408C15.128 34.0937 13.2265 41.1084 13.5123 41.3679C13.5849 41.434 15.055 41.8378 16.7791 42.2657C20.2193 43.1192 21.9423 44.4323 21.9423 46.2005C21.9423 47.315 13.9537 79.4114 13.4348 80.3823C12.8603 81.4569 11.395 81.5976 8.25322 80.8792C6.65337 80.5134 5.27112 80.2878 5.18113 80.3779C5.09114 80.4676 4.27168 82.2809 3.36 84.4069C1.88776 87.8404 1.77195 88.3022 2.32589 88.5414C2.6685 88.6895 5.35557 89.4042 8.29674 90.1299C11.2379 90.8553 14.2355 91.6043 14.9583 91.7941L16.272 92.1396L14.8709 97.5891C14.1002 100.586 13.4673 103.311 13.4647 103.643C13.461 104.099 14.2827 104.451 16.8053 105.075C18.6995 105.544 20.2775 105.762 20.4435 105.578C20.6047 105.4 21.3537 102.743 22.1079 99.6741L23.4791 94.0943L26.4084 94.8308C28.7496 95.4192 29.3017 95.6872 29.1597 96.1649C28.5954 98.0646 26.3535 107.388 26.4438 107.459C26.6069 107.584 32.9325 109.13 33.2858 109.13C33.454 109.13 34.2447 106.457 35.0428 103.19L36.494 97.2491L37.9633 97.4846C50.5651 99.5017 57.3208 97.2997 61.0158 89.9708C62.5843 86.8603 63.2477 84.2049 63.2477 81.0391C63.2477 78.5399 63.098 77.8942 62.0433 75.8454C61.0932 74.0007 60.3176 73.1166 58.3752 71.6643L55.9116 69.8226L58.0123 68.8642C63.989 66.1387 66.762 57.6998 63.6697 51.6489C62.127 48.6303 58.0031 45.4294 53.254 43.5644C51.8334 43.0066 50.592 42.4226 50.4958 42.2664C50.3999 42.1107 50.9701 39.4003 51.763 36.244L53.2054 30.5047L51.8648 30.1559C46.8546 28.8524 46.1067 28.7106 45.9109 29.0281C45.7932 29.2186 45.132 31.7455 44.4412 34.6433C43.7508 37.5416 43.1449 39.9729 43.0947 40.0463C42.9019 40.3302 37.4318 38.9204 37.4318 38.587C37.4318 38.3932 38.0348 35.8239 38.7717 32.8777C39.5082 29.9314 40.0201 27.4293 39.9083 27.3178C39.5454 26.9542 33.0062 25.4007 32.8727 25.6462ZM40.7411 48.8467C48.366 51.0262 51.5826 54.3667 50.3866 58.8641C49.846 60.8975 48.1569 62.7875 46.3096 63.4269C44.3206 64.1154 39.1958 63.8758 35.2618 62.9108C33.3585 62.4442 31.8139 61.896 31.8294 61.693C31.8453 61.4899 32.6319 58.2166 33.5783 54.4195L35.2983 47.5148L36.4575 47.734C37.0948 47.8548 39.0225 48.3553 40.7411 48.8467ZM35.139 70.6037C45.2806 73.1985 49.5801 77.1496 48.1296 82.5415C46.9336 86.9869 42.0573 88.5654 33.8844 87.1523C30.9388 86.6432 26.3996 85.5568 26.0463 85.2762C25.9707 85.2164 26.7953 81.5943 27.8785 77.2271L29.8475 69.2869L30.7817 69.5073C31.295 69.6284 33.2559 70.122 35.139 70.6037Z" fill="#F1F7FF"/>
</svg>
