<svg width="45" height="42" viewBox="0 0 45 42" fill="none" xmlns="http://www.w3.org/2000/svg">
<path fill-rule="evenodd" clip-rule="evenodd" d="M1.15601 0.288624C0.831448 0.460373 0.432516 0.862424 0.269725 1.18226C-0.704311 3.09396 1.12484 5.15903 3.11764 4.39782C3.53351 4.23884 3.71375 4.32871 5.14177 5.40737C6.60265 6.51072 6.72242 6.64723 6.89961 7.4115C9.27829 17.6689 12.1696 30.4151 12.1696 30.644C12.1696 30.8091 11.8298 31.3288 11.4144 31.7986C10.9745 32.2965 10.5784 32.955 10.4653 33.377C10.0573 34.8994 10.7387 36.751 12.0984 37.8156C12.7965 38.362 13.0223 38.4452 13.8066 38.4452C14.6589 38.4452 14.7105 38.4695 14.7105 38.8726C14.7105 39.1077 14.8721 39.6456 15.0698 40.0679C16.4364 42.9891 20.725 42.4855 21.482 39.3147L21.6895 38.4452H28.7759C36.6436 38.4452 35.8873 38.3291 36.1358 39.5742C36.2925 40.3588 37.2895 41.4349 38.175 41.7746C40.1966 42.5503 42.5044 41.2219 42.785 39.1213C42.8724 38.4655 42.8947 38.4452 43.5305 38.4452C44.6964 38.4452 45.2849 37.3369 44.5245 36.5728C44.2541 36.3012 43.9599 36.2324 43.0667 36.2324C42.1345 36.2324 41.8675 36.1646 41.4674 35.8263C40.3778 34.905 38.6754 34.897 37.3409 35.8072L36.7171 36.2324H28.6884C23.443 36.2324 20.6227 36.1725 20.5532 36.0598C20.3884 35.7917 19.2492 35.2518 18.5835 35.1263C17.8075 34.9801 16.7214 35.2785 16.0913 35.8113C15.6841 36.1556 15.4103 36.2324 14.5886 36.2324C13.5275 36.2324 13.171 36.014 12.6833 35.0656C12.3913 34.4974 12.6015 33.5983 13.1036 33.2677C13.665 32.898 14.2259 31.7467 14.3526 30.7039L14.4564 29.8493L28.1776 29.7616C35.7243 29.7134 41.9161 29.6561 41.9373 29.6339C42.3903 29.1623 42.6142 27.9583 43.6902 20.2142C44.3458 15.4963 44.9229 11.2914 44.9729 10.8701C45.0852 9.92101 44.8497 9.27844 44.2431 8.87894C43.8042 8.58991 42.7814 8.56727 26.5828 8.4871L9.3884 8.40199L9.04249 6.87005L8.69658 5.3381L6.63501 3.80615C5.50106 2.96358 4.56734 2.17547 4.56006 2.05462C4.55277 1.93394 4.39794 1.54227 4.21635 1.18447C3.64921 0.0675133 2.31317 -0.323644 1.15601 0.288624ZM32.4439 12.2671C32.802 12.6654 32.8017 12.7374 32.4026 20.4023C32.1112 26.0014 32.0673 26.1896 31.0574 26.1896C30.6225 26.1896 30.4022 26.0819 30.1989 25.7704C29.9512 25.3904 29.9431 24.7659 30.1127 19.0984C30.3124 12.4308 30.3435 12.2215 31.188 11.9076C31.6645 11.7306 32.0641 11.845 32.4439 12.2671ZM40.4064 12.3423C40.6502 12.7163 40.6084 13.2399 39.8679 19.08C39.4263 22.5628 39.0301 25.5036 38.9874 25.6155C38.9447 25.7271 38.6742 25.9333 38.3862 26.0734C37.8211 26.3484 37.2817 26.2466 37.0099 25.8134C36.8172 25.5065 37.9964 13.4413 38.2935 12.6795C38.5017 12.1457 39.2949 11.7142 39.8163 11.8513C39.9955 11.8984 40.2609 12.1194 40.4064 12.3423ZM16.7806 12.4159C17.0508 12.7812 17.2019 13.7859 17.6762 18.3734C17.9901 21.4086 18.2857 24.252 18.3331 24.6924C18.438 25.6648 18.0765 26.2322 17.3518 26.2322C16.3339 26.2322 16.2908 26.0815 15.4684 19.6303C15.0515 16.3603 14.7105 13.4215 14.7105 13.0995C14.7105 12.7774 14.8399 12.3703 14.9983 12.1944C15.4154 11.7314 16.3611 11.8489 16.7806 12.4159ZM24.4433 11.9971C25.1075 12.2533 25.1727 12.796 25.3014 19.1353C25.37 22.5109 25.3768 25.4293 25.3163 25.6202C25.0124 26.5825 23.4438 26.3421 23.2803 25.3084C23.1941 24.7634 22.6685 14.2552 22.671 13.1255C22.6731 12.191 23.5304 11.6451 24.4433 11.9971ZM18.9455 37.5941C19.3944 38.0452 19.3932 38.9742 18.9433 39.3834C18.1618 40.0939 16.9127 39.553 16.9127 38.5039C16.9127 37.788 17.4195 37.2537 18.0985 37.2537C18.3809 37.2537 18.7573 37.405 18.9455 37.5941ZM40.2896 37.5941C40.7385 38.0452 40.7373 38.9742 40.2874 39.3834C39.5059 40.0939 38.2568 39.553 38.2568 38.5039C38.2568 37.788 38.7636 37.2537 39.4426 37.2537C39.725 37.2537 40.1014 37.405 40.2896 37.5941Z" fill="black"/>
<path fill-rule="evenodd" clip-rule="evenodd" d="M1.15601 0.288624C0.831448 0.460373 0.432516 0.862424 0.269725 1.18226C-0.704311 3.09396 1.12484 5.15903 3.11764 4.39782C3.53351 4.23884 3.71375 4.32871 5.14177 5.40737C6.60265 6.51072 6.72242 6.64723 6.89961 7.4115C9.27829 17.6689 12.1696 30.4151 12.1696 30.644C12.1696 30.8091 11.8298 31.3288 11.4144 31.7986C10.9745 32.2965 10.5784 32.955 10.4653 33.377C10.0573 34.8994 10.7387 36.751 12.0984 37.8156C12.7965 38.362 13.0223 38.4452 13.8066 38.4452C14.6589 38.4452 14.7105 38.4695 14.7105 38.8726C14.7105 39.1077 14.8721 39.6456 15.0698 40.0679C16.4364 42.9891 20.725 42.4855 21.482 39.3147L21.6895 38.4452H28.7759C36.6436 38.4452 35.8873 38.3291 36.1358 39.5742C36.2925 40.3588 37.2895 41.4349 38.175 41.7746C40.1966 42.5503 42.5044 41.2219 42.785 39.1213C42.8724 38.4655 42.8947 38.4452 43.5305 38.4452C44.6964 38.4452 45.2849 37.3369 44.5245 36.5728C44.2541 36.3012 43.9599 36.2324 43.0667 36.2324C42.1345 36.2324 41.8675 36.1646 41.4674 35.8263C40.3778 34.905 38.6754 34.897 37.3409 35.8072L36.7171 36.2324H28.6884C23.443 36.2324 20.6227 36.1725 20.5532 36.0598C20.3884 35.7917 19.2492 35.2518 18.5835 35.1263C17.8075 34.9801 16.7214 35.2785 16.0913 35.8113C15.6841 36.1556 15.4103 36.2324 14.5886 36.2324C13.5275 36.2324 13.171 36.014 12.6833 35.0656C12.3913 34.4974 12.6015 33.5983 13.1036 33.2677C13.665 32.898 14.2259 31.7467 14.3526 30.7039L14.4564 29.8493L28.1776 29.7616C35.7243 29.7134 41.9161 29.6561 41.9373 29.6339C42.3903 29.1623 42.6142 27.9583 43.6902 20.2142C44.3458 15.4963 44.9229 11.2914 44.9729 10.8701C45.0852 9.92101 44.8497 9.27844 44.2431 8.87894C43.8042 8.58991 42.7814 8.56727 26.5828 8.4871L9.3884 8.40199L9.04249 6.87005L8.69658 5.3381L6.63501 3.80615C5.50106 2.96358 4.56734 2.17547 4.56006 2.05462C4.55277 1.93394 4.39794 1.54227 4.21635 1.18447C3.64921 0.0675133 2.31317 -0.323644 1.15601 0.288624ZM32.4439 12.2671C32.802 12.6654 32.8017 12.7374 32.4026 20.4023C32.1112 26.0014 32.0673 26.1896 31.0574 26.1896C30.6225 26.1896 30.4022 26.0819 30.1989 25.7704C29.9512 25.3904 29.9431 24.7659 30.1127 19.0984C30.3124 12.4308 30.3435 12.2215 31.188 11.9076C31.6645 11.7306 32.0641 11.845 32.4439 12.2671ZM40.4064 12.3423C40.6502 12.7163 40.6084 13.2399 39.8679 19.08C39.4263 22.5628 39.0301 25.5036 38.9874 25.6155C38.9447 25.7271 38.6742 25.9333 38.3862 26.0734C37.8211 26.3484 37.2817 26.2466 37.0099 25.8134C36.8172 25.5065 37.9964 13.4413 38.2935 12.6795C38.5017 12.1457 39.2949 11.7142 39.8163 11.8513C39.9955 11.8984 40.2609 12.1194 40.4064 12.3423ZM16.7806 12.4159C17.0508 12.7812 17.2019 13.7859 17.6762 18.3734C17.9901 21.4086 18.2857 24.252 18.3331 24.6924C18.438 25.6648 18.0765 26.2322 17.3518 26.2322C16.3339 26.2322 16.2908 26.0815 15.4684 19.6303C15.0515 16.3603 14.7105 13.4215 14.7105 13.0995C14.7105 12.7774 14.8399 12.3703 14.9983 12.1944C15.4154 11.7314 16.3611 11.8489 16.7806 12.4159ZM24.4433 11.9971C25.1075 12.2533 25.1727 12.796 25.3014 19.1353C25.37 22.5109 25.3768 25.4293 25.3163 25.6202C25.0124 26.5825 23.4438 26.3421 23.2803 25.3084C23.1941 24.7634 22.6685 14.2552 22.671 13.1255C22.6731 12.191 23.5304 11.6451 24.4433 11.9971ZM18.9455 37.5941C19.3944 38.0452 19.3932 38.9742 18.9433 39.3834C18.1618 40.0939 16.9127 39.553 16.9127 38.5039C16.9127 37.788 17.4195 37.2537 18.0985 37.2537C18.3809 37.2537 18.7573 37.405 18.9455 37.5941ZM40.2896 37.5941C40.7385 38.0452 40.7373 38.9742 40.2874 39.3834C39.5059 40.0939 38.2568 39.553 38.2568 38.5039C38.2568 37.788 38.7636 37.2537 39.4426 37.2537C39.725 37.2537 40.1014 37.405 40.2896 37.5941Z" fill="url(#paint0_linear_1_94)"/>
<defs>
<linearGradient id="paint0_linear_1_94" x1="22.5" y1="0" x2="22.5" y2="42" gradientUnits="userSpaceOnUse">
<stop stop-color="#3C3CA0"/>
<stop offset="1" stop-color="#2AB3D3"/>
</linearGradient>
</defs>
</svg>
