<svg width="45" height="39" viewBox="0 0 45 39" fill="none" xmlns="http://www.w3.org/2000/svg">
<path fill-rule="evenodd" clip-rule="evenodd" d="M18.7046 0.0465238C16.6307 0.284437 14.8574 1.00579 13.1737 2.29657C12.6609 2.68967 11.5478 3.79275 11.1516 4.30048C9.90149 5.90247 9.1618 7.67771 8.93152 9.62848C8.84077 10.3974 8.84166 11.7384 8.93344 12.4769C9.21458 14.7394 10.1366 16.7093 11.7344 18.4614C14.0867 21.0408 17.2351 22.3098 20.7359 22.0897C23.5719 21.9114 25.9079 20.8567 27.9328 18.8406C29.6735 17.1073 30.6885 15.1492 31.0641 12.799C31.1854 12.04 31.1855 10.0247 31.0642 9.29377C30.6842 7.00369 29.7375 5.12932 28.1013 3.42687C26.3082 1.56142 24.2457 0.479987 21.7513 0.0973851C21.0782 -0.00582507 19.4048 -0.0337868 18.7046 0.0465238ZM38.0629 11.2679V13.4974H35.9068H33.7506V14.7516V16.0057H35.9068H38.0629V18.2352V20.4648H39.3753H40.6877V18.2352V16.0057H42.8439H45V14.752V13.4984L42.8556 13.4863L40.7112 13.4742L40.699 11.2563L40.6869 9.0383H39.3749H38.0629V11.2679ZM8.62708 20.3309C6.82301 20.51 5.11292 21.2491 3.93118 22.3607C2.22554 23.965 1.00705 26.3431 0.309355 29.4292C-0.0113918 30.8482 -0.0532486 31.3225 0.0506204 32.3625C0.230798 34.1665 0.726332 35.8017 1.34692 36.6404C1.72574 37.1523 2.66263 37.8503 3.4746 38.2255C4.28525 38.6001 5.23526 38.8497 6.22984 38.9494C6.89974 39.0165 33.1996 39.017 33.8345 38.9499C35.4455 38.7796 36.6936 38.314 37.8285 37.46C38.8007 36.7285 39.259 35.9406 39.6785 34.2796C39.9902 33.0452 40.1208 31.3066 39.9641 30.4746C39.7499 29.3367 39.3303 27.7777 39.0062 26.916C38.2585 24.9275 37.1142 23.1713 35.913 22.1689C34.5523 21.0333 32.8787 20.4044 30.9383 20.2994L30.3524 20.2678L30.0003 20.4522C29.8066 20.5537 29.0578 21.0125 28.3363 21.4719C27.6148 21.9313 26.8712 22.3953 26.684 22.5031C25.5333 23.1658 23.5586 23.8598 22.1205 24.1071C21.3123 24.2461 20.6762 24.2862 19.6956 24.2601C18.0194 24.2155 16.8359 23.9583 14.8441 23.2056C14.1903 22.9586 13.0743 22.3434 11.8144 21.5354C11.0797 21.0642 10.3037 20.5887 10.0899 20.4788C9.73046 20.294 9.67599 20.2795 9.3634 20.2852C9.17755 20.2886 8.84621 20.3092 8.62708 20.3309Z" fill="black"/>
<path fill-rule="evenodd" clip-rule="evenodd" d="M18.7046 0.0465238C16.6307 0.284437 14.8574 1.00579 13.1737 2.29657C12.6609 2.68967 11.5478 3.79275 11.1516 4.30048C9.90149 5.90247 9.1618 7.67771 8.93152 9.62848C8.84077 10.3974 8.84166 11.7384 8.93344 12.4769C9.21458 14.7394 10.1366 16.7093 11.7344 18.4614C14.0867 21.0408 17.2351 22.3098 20.7359 22.0897C23.5719 21.9114 25.9079 20.8567 27.9328 18.8406C29.6735 17.1073 30.6885 15.1492 31.0641 12.799C31.1854 12.04 31.1855 10.0247 31.0642 9.29377C30.6842 7.00369 29.7375 5.12932 28.1013 3.42687C26.3082 1.56142 24.2457 0.479987 21.7513 0.0973851C21.0782 -0.00582507 19.4048 -0.0337868 18.7046 0.0465238ZM38.0629 11.2679V13.4974H35.9068H33.7506V14.7516V16.0057H35.9068H38.0629V18.2352V20.4648H39.3753H40.6877V18.2352V16.0057H42.8439H45V14.752V13.4984L42.8556 13.4863L40.7112 13.4742L40.699 11.2563L40.6869 9.0383H39.3749H38.0629V11.2679ZM8.62708 20.3309C6.82301 20.51 5.11292 21.2491 3.93118 22.3607C2.22554 23.965 1.00705 26.3431 0.309355 29.4292C-0.0113918 30.8482 -0.0532486 31.3225 0.0506204 32.3625C0.230798 34.1665 0.726332 35.8017 1.34692 36.6404C1.72574 37.1523 2.66263 37.8503 3.4746 38.2255C4.28525 38.6001 5.23526 38.8497 6.22984 38.9494C6.89974 39.0165 33.1996 39.017 33.8345 38.9499C35.4455 38.7796 36.6936 38.314 37.8285 37.46C38.8007 36.7285 39.259 35.9406 39.6785 34.2796C39.9902 33.0452 40.1208 31.3066 39.9641 30.4746C39.7499 29.3367 39.3303 27.7777 39.0062 26.916C38.2585 24.9275 37.1142 23.1713 35.913 22.1689C34.5523 21.0333 32.8787 20.4044 30.9383 20.2994L30.3524 20.2678L30.0003 20.4522C29.8066 20.5537 29.0578 21.0125 28.3363 21.4719C27.6148 21.9313 26.8712 22.3953 26.684 22.5031C25.5333 23.1658 23.5586 23.8598 22.1205 24.1071C21.3123 24.2461 20.6762 24.2862 19.6956 24.2601C18.0194 24.2155 16.8359 23.9583 14.8441 23.2056C14.1903 22.9586 13.0743 22.3434 11.8144 21.5354C11.0797 21.0642 10.3037 20.5887 10.0899 20.4788C9.73046 20.294 9.67599 20.2795 9.3634 20.2852C9.17755 20.2886 8.84621 20.3092 8.62708 20.3309Z" fill="url(#paint0_linear_1_90)"/>
<defs>
<linearGradient id="paint0_linear_1_90" x1="22.5" y1="0" x2="22.5" y2="39" gradientUnits="userSpaceOnUse">
<stop stop-color="#3C3CA0"/>
<stop offset="1" stop-color="#2AB3D3"/>
</linearGradient>
</defs>
</svg>
