<svg width="84" height="74" viewBox="0 0 84 74" fill="none" xmlns="http://www.w3.org/2000/svg">
<path d="M7.875 73.5L28.875 73.5C33.2227 73.5 36.75 69.9727 36.75 65.625L36.75 44.625C36.75 40.2773 33.2227 36.75 28.875 36.75L15.75 36.75L15.75 26.25C15.75 20.4586 20.4586 15.75 26.25 15.75L27.5625 15.75C29.7445 15.75 31.5 13.9945 31.5 11.8125L31.5 3.9375C31.5 1.75547 29.7445 -4.74316e-06 27.5625 -4.93392e-06L26.25 -5.04867e-06C11.7469 -6.31657e-06 5.39863e-06 11.7469 4.13073e-06 26.25L6.88454e-07 65.625C3.0837e-07 69.9726 3.52734 73.5 7.875 73.5ZM55.125 73.5L76.125 73.5C80.4727 73.5 84 69.9727 84 65.625L84 44.625C84 40.2773 80.4727 36.75 76.125 36.75L63 36.75L63 26.25C63 20.4586 67.7086 15.75 73.5 15.75L74.8125 15.75C76.9945 15.75 78.75 13.9945 78.75 11.8125L78.75 3.9375C78.75 1.75547 76.9945 -6.12438e-07 74.8125 -8.03197e-07L73.5 -9.17939e-07C58.9969 -2.18584e-06 47.25 11.7469 47.25 26.25L47.25 65.625C47.25 69.9727 50.7773 73.5 55.125 73.5Z" fill="white"/>
</svg>
