<svg width="55" height="45" viewBox="0 0 55 45" fill="none" xmlns="http://www.w3.org/2000/svg">
<path d="M1.00012 22.5052C1.03118 23.0305 1.22475 23.5333 1.55404 23.9437C1.88333 24.3542 2.33207 24.652 2.83813 24.7963L22.2571 30.5824L22.9711 43.7743C22.9902 44.0336 23.0859 44.2814 23.2462 44.4862C23.4064 44.691 23.624 44.8434 23.8711 44.9242C24.0094 44.975 24.1558 45.0006 24.3031 44.9994C24.4905 45.0011 24.676 44.9629 24.8476 44.8876C25.0191 44.8122 25.1727 44.7015 25.2981 44.5624L32.1641 37.0712L41.8951 43.7093C42.2464 43.9504 42.6515 44.1015 43.0749 44.1493C43.4982 44.1971 43.9268 44.14 44.323 43.9833C44.7191 43.8265 45.0707 43.5749 45.3468 43.2504C45.6228 42.9259 45.8149 42.5386 45.9061 42.1224L53.9831 1.55651C54.0285 1.32536 54.0103 1.08619 53.9303 0.864615C53.8503 0.64304 53.7117 0.447089 53.5291 0.298209C53.3441 0.147583 53.122 0.0497082 52.886 0.0145177C52.6501 -0.0206727 52.409 0.00841223 52.1881 0.0985021L2.55313 20.0004C2.06849 20.2081 1.65948 20.56 1.38165 21.0082C1.10382 21.4563 0.970621 21.9788 1.00012 22.5052ZM25.4351 40.5052L24.9921 32.1835L29.9651 35.5712L25.4351 40.5052ZM43.3181 41.5174L25.6081 29.4344L50.4431 5.75719L43.3181 41.5174ZM47.7181 4.71715L23.1641 28.1283L3.76413 22.3524L47.7181 4.71715Z" fill="url(#paint0_linear_1_223)"/>
<path d="M1.00012 22.5052C1.03118 23.0305 1.22475 23.5333 1.55404 23.9437C1.88333 24.3542 2.33207 24.652 2.83813 24.7963L22.2571 30.5824L22.9711 43.7743C22.9902 44.0336 23.0859 44.2814 23.2462 44.4862C23.4064 44.691 23.624 44.8434 23.8711 44.9242C24.0094 44.975 24.1558 45.0006 24.3031 44.9994C24.4905 45.0011 24.676 44.9629 24.8476 44.8876C25.0191 44.8122 25.1727 44.7015 25.2981 44.5624L32.1641 37.0712L41.8951 43.7093C42.2464 43.9504 42.6515 44.1015 43.0749 44.1493C43.4982 44.1971 43.9268 44.14 44.323 43.9833C44.7191 43.8265 45.0707 43.5749 45.3468 43.2504C45.6228 42.9259 45.8149 42.5386 45.9061 42.1224L53.9831 1.55651C54.0285 1.32536 54.0103 1.08619 53.9303 0.864615C53.8503 0.64304 53.7117 0.447089 53.5291 0.298209C53.3441 0.147583 53.122 0.0497082 52.886 0.0145177C52.6501 -0.0206727 52.409 0.00841223 52.1881 0.0985021L2.55313 20.0004C2.06849 20.2081 1.65948 20.56 1.38165 21.0082C1.10382 21.4563 0.970621 21.9788 1.00012 22.5052ZM25.4351 40.5052L24.9921 32.1835L29.9651 35.5712L25.4351 40.5052ZM43.3181 41.5174L25.6081 29.4344L50.4431 5.75719L43.3181 41.5174ZM47.7181 4.71715L23.1641 28.1283L3.76413 22.3524L47.7181 4.71715Z" fill="url(#paint1_linear_1_223)"/>
<defs>
<linearGradient id="paint0_linear_1_223" x1="27.5018" y1="0" x2="27.5018" y2="44.9994" gradientUnits="userSpaceOnUse">
<stop stop-color="#F53B10"/>
<stop offset="1" stop-color="#F58F18"/>
</linearGradient>
<linearGradient id="paint1_linear_1_223" x1="40" y1="11.5" x2="24.4444" y2="43.473" gradientUnits="userSpaceOnUse">
<stop stop-color="#3C3CA0"/>
<stop offset="0.5625" stop-color="#2AB3D3"/>
</linearGradient>
</defs>
</svg>
