<svg width="59" height="36" viewBox="0 0 59 36" fill="none" xmlns="http://www.w3.org/2000/svg">
<path d="M12.069 35.001C11.7185 34.9915 11.3856 34.8456 11.1411 34.5943C10.8965 34.343 10.7597 34.006 10.7597 33.6553C10.7597 33.3047 10.8965 32.9681 11.1411 32.7169C11.3856 32.4656 11.7185 32.3197 12.069 32.3101H54.978C55.1572 32.3207 55.3365 32.293 55.5042 32.2291C55.6719 32.1651 55.8241 32.0662 55.9508 31.939C56.0774 31.8119 56.1757 31.6597 56.239 31.4918C56.3023 31.3238 56.3292 31.144 56.318 30.9649V4.0401C56.3294 3.8609 56.3026 3.68129 56.2393 3.51324C56.1761 3.3452 56.0779 3.19225 55.9512 3.065C55.8245 2.93775 55.6722 2.83895 55.5045 2.77496C55.3367 2.71097 55.1573 2.68335 54.978 2.69391H12.069C11.7185 2.68435 11.3856 2.53846 11.1411 2.28717C10.8965 2.03588 10.7597 1.69932 10.7597 1.34869C10.7597 0.998063 10.8965 0.661015 11.1411 0.409727C11.3856 0.158439 11.7185 0.0125452 12.069 0.00298903H54.978C55.5099 -0.00585948 56.0381 0.0926034 56.5311 0.29254C57.0241 0.492476 57.4716 0.789711 57.8471 1.16656C58.2225 1.54342 58.5181 1.9922 58.7162 2.4859C58.9143 2.9796 59.0109 3.50825 59 4.0401V30.9629C59.0111 31.495 58.9148 32.0237 58.7168 32.5176C58.5188 33.0116 58.2233 33.4604 57.8478 33.8375C57.4723 34.2145 57.0246 34.5124 56.5316 34.7125C56.0385 34.9125 55.5101 35.0109 54.978 35.002L12.069 35.001ZM51.358 29.2149L43.313 21.1373C43.1892 21.014 43.0908 20.8674 43.0236 20.7061C42.9563 20.5449 42.9215 20.372 42.9211 20.1973C42.9207 20.0226 42.9547 19.8496 43.0211 19.688C43.0876 19.5265 43.1853 19.3793 43.3085 19.2554C43.4318 19.1316 43.5782 19.0331 43.7395 18.9659C43.9007 18.8986 44.0736 18.8642 44.2484 18.8638C44.4231 18.8634 44.5961 18.897 44.7577 18.9634C44.9193 19.0299 45.0662 19.1278 45.19 19.251L53.235 27.3292C53.3622 27.4511 53.4635 27.5973 53.5327 27.7593C53.6018 27.9214 53.6375 28.0958 53.6375 28.272C53.6375 28.4482 53.6018 28.6227 53.5327 28.7847C53.4635 28.9468 53.3622 29.093 53.235 29.2149C53.1137 29.3415 52.968 29.4425 52.8067 29.5113C52.6454 29.5801 52.4719 29.6153 52.2965 29.6153C52.1212 29.6153 51.9476 29.5801 51.7863 29.5113C51.6251 29.4425 51.4794 29.3415 51.358 29.2149ZM9.38803 25.5782C9.03753 25.5686 8.70458 25.4227 8.46005 25.1714C8.21552 24.9202 8.0787 24.5831 8.0787 24.2325C8.0787 23.8819 8.21552 23.5453 8.46005 23.294C8.70458 23.0427 9.03753 22.8968 9.38803 22.8873H20.115C20.4655 22.8968 20.7985 23.0427 21.043 23.294C21.2875 23.5453 21.4243 23.8819 21.4243 24.2325C21.4243 24.5831 21.2875 24.9202 21.043 25.1714C20.7985 25.4227 20.4655 25.5686 20.115 25.5782H9.38803ZM30.842 18.7149L16.495 7.815C16.2093 7.60177 16.0199 7.28357 15.9686 6.93072C15.9173 6.57787 16.0083 6.21942 16.2215 5.93365C16.4348 5.64788 16.7528 5.45858 17.1057 5.40729C17.4585 5.35599 17.8173 5.44698 18.103 5.66022L32.317 16.5601C33.0372 17.0853 33.9056 17.3682 34.797 17.3682C35.6884 17.3682 36.5568 17.0853 37.277 16.5601L51.491 5.66022C51.7768 5.44672 52.1357 5.35521 52.4887 5.40631C52.8417 5.45741 53.16 5.64691 53.3735 5.93268C53.587 6.21845 53.6783 6.5772 53.6272 6.93023C53.5761 7.28327 53.3868 7.6015 53.101 7.815L38.887 18.7149C37.741 19.6142 36.3195 20.0899 34.863 20.0611C33.4102 20.0679 31.9959 19.5935 30.841 18.712L30.842 18.7149ZM5.36404 18.8482C5.01355 18.8386 4.6806 18.6928 4.43607 18.4415C4.19154 18.1902 4.05472 17.8531 4.05472 17.5025C4.05472 17.1519 4.19154 16.8153 4.43607 16.564C4.6806 16.3127 5.01355 16.1664 5.36404 16.1568H16.09C16.4405 16.1664 16.7735 16.3127 17.018 16.564C17.2625 16.8153 17.3994 17.1519 17.3994 17.5025C17.3994 17.8531 17.2625 18.1902 17.018 18.4415C16.7735 18.6928 16.4405 18.8386 16.09 18.8482H5.36404ZM1.34204 12.1182C0.991542 12.1087 0.658593 11.9628 0.414062 11.7115C0.169532 11.4602 0.0327148 11.1231 0.0327148 10.7725C0.0327148 10.4219 0.169532 10.0853 0.414062 9.83404C0.658593 9.58276 0.991542 9.43637 1.34204 9.42682H12.069C12.4195 9.43637 12.7525 9.58276 12.997 9.83404C13.2415 10.0853 13.3784 10.4219 13.3784 10.7725C13.3784 11.1231 13.2415 11.4602 12.997 11.7115C12.7525 11.9628 12.4195 12.1087 12.069 12.1182H1.34204Z" fill="url(#paint0_linear_1_221)"/>
<path d="M12.069 35.001C11.7185 34.9915 11.3856 34.8456 11.1411 34.5943C10.8965 34.343 10.7597 34.006 10.7597 33.6553C10.7597 33.3047 10.8965 32.9681 11.1411 32.7169C11.3856 32.4656 11.7185 32.3197 12.069 32.3101H54.978C55.1572 32.3207 55.3365 32.293 55.5042 32.2291C55.6719 32.1651 55.8241 32.0662 55.9508 31.939C56.0774 31.8119 56.1757 31.6597 56.239 31.4918C56.3023 31.3238 56.3292 31.144 56.318 30.9649V4.0401C56.3294 3.8609 56.3026 3.68129 56.2393 3.51324C56.1761 3.3452 56.0779 3.19225 55.9512 3.065C55.8245 2.93775 55.6722 2.83895 55.5045 2.77496C55.3367 2.71097 55.1573 2.68335 54.978 2.69391H12.069C11.7185 2.68435 11.3856 2.53846 11.1411 2.28717C10.8965 2.03588 10.7597 1.69932 10.7597 1.34869C10.7597 0.998063 10.8965 0.661015 11.1411 0.409727C11.3856 0.158439 11.7185 0.0125452 12.069 0.00298903H54.978C55.5099 -0.00585948 56.0381 0.0926034 56.5311 0.29254C57.0241 0.492476 57.4716 0.789711 57.8471 1.16656C58.2225 1.54342 58.5181 1.9922 58.7162 2.4859C58.9143 2.9796 59.0109 3.50825 59 4.0401V30.9629C59.0111 31.495 58.9148 32.0237 58.7168 32.5176C58.5188 33.0116 58.2233 33.4604 57.8478 33.8375C57.4723 34.2145 57.0246 34.5124 56.5316 34.7125C56.0385 34.9125 55.5101 35.0109 54.978 35.002L12.069 35.001ZM51.358 29.2149L43.313 21.1373C43.1892 21.014 43.0908 20.8674 43.0236 20.7061C42.9563 20.5449 42.9215 20.372 42.9211 20.1973C42.9207 20.0226 42.9547 19.8496 43.0211 19.688C43.0876 19.5265 43.1853 19.3793 43.3085 19.2554C43.4318 19.1316 43.5782 19.0331 43.7395 18.9659C43.9007 18.8986 44.0736 18.8642 44.2484 18.8638C44.4231 18.8634 44.5961 18.897 44.7577 18.9634C44.9193 19.0299 45.0662 19.1278 45.19 19.251L53.235 27.3292C53.3622 27.4511 53.4635 27.5973 53.5327 27.7593C53.6018 27.9214 53.6375 28.0958 53.6375 28.272C53.6375 28.4482 53.6018 28.6227 53.5327 28.7847C53.4635 28.9468 53.3622 29.093 53.235 29.2149C53.1137 29.3415 52.968 29.4425 52.8067 29.5113C52.6454 29.5801 52.4719 29.6153 52.2965 29.6153C52.1212 29.6153 51.9476 29.5801 51.7863 29.5113C51.6251 29.4425 51.4794 29.3415 51.358 29.2149ZM9.38803 25.5782C9.03753 25.5686 8.70458 25.4227 8.46005 25.1714C8.21552 24.9202 8.0787 24.5831 8.0787 24.2325C8.0787 23.8819 8.21552 23.5453 8.46005 23.294C8.70458 23.0427 9.03753 22.8968 9.38803 22.8873H20.115C20.4655 22.8968 20.7985 23.0427 21.043 23.294C21.2875 23.5453 21.4243 23.8819 21.4243 24.2325C21.4243 24.5831 21.2875 24.9202 21.043 25.1714C20.7985 25.4227 20.4655 25.5686 20.115 25.5782H9.38803ZM30.842 18.7149L16.495 7.815C16.2093 7.60177 16.0199 7.28357 15.9686 6.93072C15.9173 6.57787 16.0083 6.21942 16.2215 5.93365C16.4348 5.64788 16.7528 5.45858 17.1057 5.40729C17.4585 5.35599 17.8173 5.44698 18.103 5.66022L32.317 16.5601C33.0372 17.0853 33.9056 17.3682 34.797 17.3682C35.6884 17.3682 36.5568 17.0853 37.277 16.5601L51.491 5.66022C51.7768 5.44672 52.1357 5.35521 52.4887 5.40631C52.8417 5.45741 53.16 5.64691 53.3735 5.93268C53.587 6.21845 53.6783 6.5772 53.6272 6.93023C53.5761 7.28327 53.3868 7.6015 53.101 7.815L38.887 18.7149C37.741 19.6142 36.3195 20.0899 34.863 20.0611C33.4102 20.0679 31.9959 19.5935 30.841 18.712L30.842 18.7149ZM5.36404 18.8482C5.01355 18.8386 4.6806 18.6928 4.43607 18.4415C4.19154 18.1902 4.05472 17.8531 4.05472 17.5025C4.05472 17.1519 4.19154 16.8153 4.43607 16.564C4.6806 16.3127 5.01355 16.1664 5.36404 16.1568H16.09C16.4405 16.1664 16.7735 16.3127 17.018 16.564C17.2625 16.8153 17.3994 17.1519 17.3994 17.5025C17.3994 17.8531 17.2625 18.1902 17.018 18.4415C16.7735 18.6928 16.4405 18.8386 16.09 18.8482H5.36404ZM1.34204 12.1182C0.991542 12.1087 0.658593 11.9628 0.414062 11.7115C0.169532 11.4602 0.0327148 11.1231 0.0327148 10.7725C0.0327148 10.4219 0.169532 10.0853 0.414062 9.83404C0.658593 9.58276 0.991542 9.43637 1.34204 9.42682H12.069C12.4195 9.43637 12.7525 9.58276 12.997 9.83404C13.2415 10.0853 13.3784 10.4219 13.3784 10.7725C13.3784 11.1231 13.2415 11.4602 12.997 11.7115C12.7525 11.9628 12.4195 12.1087 12.069 12.1182H1.34204Z" fill="url(#paint1_linear_1_221)"/>
<defs>
<linearGradient id="paint0_linear_1_221" x1="29.5168" y1="0.00244141" x2="29.5168" y2="35.0026" gradientUnits="userSpaceOnUse">
<stop stop-color="#F53B10"/>
<stop offset="1" stop-color="#F58F18"/>
</linearGradient>
<linearGradient id="paint1_linear_1_221" x1="30" y1="3.5" x2="29.4135" y2="35.0006" gradientUnits="userSpaceOnUse">
<stop stop-color="#3C3CA0"/>
<stop offset="0.630208" stop-color="#2BAACF"/>
<stop offset="1" stop-color="#2AB3D3"/>
</linearGradient>
</defs>
</svg>
