<svg width="28" height="28" viewBox="0 0 28 28" fill="none" xmlns="http://www.w3.org/2000/svg">
<path d="M13.128 10.5676C11.7098 10.5676 10.5524 11.7279 10.5524 13.1497C10.5524 14.5715 11.7098 15.7318 13.128 15.7318C14.5462 15.7318 15.7036 14.5715 15.7036 13.1497C15.7036 11.7279 14.5462 10.5676 13.128 10.5676ZM20.8528 13.1497C20.8528 12.0805 20.8624 11.0209 20.8026 9.9536C20.7427 8.71388 20.4606 7.61363 19.5563 6.70708C18.6501 5.7986 17.5546 5.51773 16.318 5.45768C15.2514 5.39763 14.1945 5.40731 13.1299 5.40731C12.0634 5.40731 11.0065 5.39763 9.94186 5.45768C8.70527 5.51773 7.6078 5.80054 6.70355 6.70708C5.79737 7.61556 5.5172 8.71388 5.45731 9.9536C5.39741 11.0229 5.40707 12.0824 5.40707 13.1497C5.40707 14.2171 5.39741 15.2786 5.45731 16.3459C5.5172 17.5856 5.7993 18.6859 6.70355 19.5924C7.60974 20.5009 8.70527 20.7818 9.94186 20.8418C11.0084 20.9019 12.0653 20.8922 13.1299 20.8922C14.1965 20.8922 15.2534 20.9019 16.318 20.8418C17.5546 20.7818 18.6521 20.499 19.5563 19.5924C20.4625 18.6839 20.7427 17.5856 20.8026 16.3459C20.8644 15.2786 20.8528 14.219 20.8528 13.1497ZM13.128 17.1227C10.935 17.1227 9.16513 15.3483 9.16513 13.1497C9.16513 10.9512 10.935 9.17683 13.128 9.17683C15.321 9.17683 17.0909 10.9512 17.0909 13.1497C17.0909 15.3483 15.321 17.1227 13.128 17.1227ZM17.2532 9.94197C16.7411 9.94197 16.3277 9.52744 16.3277 9.01412C16.3277 8.5008 16.7411 8.08627 17.2532 8.08627C17.7652 8.08627 18.1787 8.5008 18.1787 9.01412C18.1788 9.13601 18.155 9.25673 18.1085 9.36938C18.0621 9.48202 17.9939 9.58436 17.9079 9.67055C17.822 9.75674 17.7199 9.82508 17.6075 9.87166C17.4952 9.91823 17.3747 9.94213 17.2532 9.94197Z" fill="#033780"/>
<circle cx="13.5163" cy="13.5163" r="13.1301" stroke="#033780" stroke-width="0.772358"/>
</svg>
