<svg width="29" height="28" viewBox="0 0 29 28" fill="none" xmlns="http://www.w3.org/2000/svg">
<path d="M20.1597 8.00817C19.0647 7.51966 17.8909 7.15858 16.6634 6.95326C16.6525 6.95118 16.6412 6.95252 16.631 6.95709C16.6209 6.96166 16.6125 6.96922 16.6069 6.97875C16.4566 7.24 16.2891 7.58054 16.1717 7.84958C14.8699 7.65717 13.5464 7.65717 12.2445 7.84958C12.1138 7.55142 11.9664 7.26069 11.8029 6.97875C11.7974 6.96911 11.789 6.96137 11.7789 6.95656C11.7688 6.95175 11.7575 6.95011 11.7464 6.95184C10.5196 7.15716 9.34583 7.51824 8.25005 8.00746C8.24063 8.01138 8.23263 8.01805 8.22715 8.02658C5.99981 11.2657 5.38929 14.4247 5.68918 17.5442C5.69002 17.5518 5.69241 17.5592 5.69623 17.5659C5.70004 17.5726 5.70519 17.5784 5.71137 17.5831C7.01141 18.5194 8.46143 19.2326 10.0007 19.6929C10.0115 19.6962 10.0229 19.6962 10.0337 19.6929C10.0444 19.6896 10.0539 19.6832 10.0608 19.6745C10.3915 19.2355 10.6864 18.7718 10.9383 18.2847C10.9534 18.2564 10.939 18.2224 10.909 18.2111C10.4466 18.0388 9.99863 17.831 9.56914 17.5895C9.56142 17.5851 9.55492 17.5789 9.55021 17.5715C9.54551 17.564 9.54275 17.5555 9.54218 17.5467C9.54161 17.538 9.54325 17.5292 9.54696 17.5212C9.55067 17.5132 9.55632 17.5063 9.56341 17.501C9.65359 17.4351 9.74377 17.3664 9.82966 17.2978C9.83739 17.2916 9.84671 17.2877 9.85656 17.2864C9.86642 17.2852 9.87643 17.2866 9.88549 17.2907C12.6961 18.5396 15.7401 18.5396 18.5179 17.2907C18.527 17.2864 18.5371 17.2847 18.5471 17.2859C18.5571 17.287 18.5665 17.2909 18.5744 17.2971C18.6603 17.3664 18.7498 17.4351 18.8407 17.501C18.8478 17.5061 18.8536 17.513 18.8574 17.5209C18.8612 17.5289 18.863 17.5376 18.8626 17.5464C18.8621 17.5551 18.8595 17.5637 18.855 17.5712C18.8504 17.5787 18.844 17.585 18.8364 17.5895C18.4084 17.833 17.9632 18.039 17.4958 18.2104C17.4886 18.213 17.4821 18.217 17.4766 18.2223C17.4712 18.2276 17.4669 18.2339 17.4641 18.241C17.4614 18.248 17.4601 18.2555 17.4605 18.2631C17.4609 18.2706 17.463 18.278 17.4665 18.2847C17.7241 18.7711 18.019 19.2341 18.3432 19.6738C18.35 19.6828 18.3594 19.6896 18.3701 19.6931C18.3809 19.6967 18.3925 19.6968 18.4034 19.6936C19.9453 19.2346 21.3977 18.521 22.6991 17.5831C22.7055 17.5787 22.7108 17.573 22.7148 17.5664C22.7187 17.5598 22.7212 17.5525 22.722 17.5449C23.0799 13.9383 22.1223 10.8048 20.1819 8.028C20.1772 8.01897 20.1693 8.01194 20.1597 8.00817ZM11.3585 15.6446C10.5125 15.6446 9.81463 14.8878 9.81463 13.9596C9.81463 13.0307 10.4989 12.2745 11.3585 12.2745C12.2245 12.2745 12.9159 13.0371 12.9023 13.9596C12.9023 14.8885 12.218 15.6446 11.3585 15.6446ZM17.0664 15.6446C16.2197 15.6446 15.5226 14.8878 15.5226 13.9596C15.5226 13.0307 16.2061 12.2745 17.0664 12.2745C17.9324 12.2745 18.6238 13.0371 18.6102 13.9596C18.6102 14.8885 17.9331 15.6446 17.0664 15.6446Z" fill="#033780"/>
<circle cx="14.5" cy="13.5163" r="13.1301" stroke="#033780" stroke-width="0.772358"/>
</svg>
