<svg width="28" height="28" viewBox="0 0 28 28" fill="none" xmlns="http://www.w3.org/2000/svg">
<path d="M22.6252 8.50134C22.0276 8.7633 21.3856 8.9403 20.7107 9.0203C21.4071 8.6081 21.9281 7.95935 22.1765 7.19509C21.5222 7.57952 20.8061 7.85012 20.0593 7.99512C19.5572 7.46474 18.892 7.11319 18.1672 6.99506C17.4424 6.87693 16.6984 6.99883 16.0507 7.34182C15.4031 7.68482 14.8881 8.22973 14.5856 8.89194C14.2831 9.55416 14.2101 10.2966 14.3779 11.0041C13.0522 10.9383 11.7552 10.5974 10.5713 10.0036C9.3873 9.40988 8.34278 8.5765 7.5055 7.55758C7.21921 8.0461 7.05459 8.61249 7.05459 9.21571C7.05427 9.75873 7.18945 10.2934 7.44815 10.7724C7.70685 11.2513 8.08106 11.6597 8.53757 11.9613C8.00813 11.9446 7.49037 11.8031 7.02739 11.5485V11.591C7.02734 12.3526 7.29366 13.0908 7.78118 13.6803C8.2687 14.2698 8.94738 14.6743 9.70206 14.8251C9.21092 14.9566 8.69599 14.976 8.19617 14.8818C8.4091 15.5371 8.82386 16.1102 9.38239 16.5207C9.94093 16.9313 10.6153 17.1588 11.311 17.1714C10.1299 18.0886 8.67133 18.5861 7.16982 18.5839C6.90384 18.584 6.63809 18.5686 6.37393 18.5379C7.89806 19.5072 9.67224 20.0217 11.4842 20.0197C17.618 20.0197 20.9712 14.9944 20.9712 10.6359C20.9712 10.4943 20.9676 10.3513 20.9612 10.2097C21.6134 9.74314 22.1764 9.16536 22.6238 8.50346L22.6252 8.50134Z" fill="white"/>
<circle cx="14.4837" cy="13.5163" r="13.1301" stroke="white" stroke-width="0.772358"/>
</svg>
