<svg width="78" height="78" viewBox="0 0 78 78" fill="none" xmlns="http://www.w3.org/2000/svg">
<circle cx="39" cy="39" r="39" fill="#C4C4C4"/>
<circle cx="39" cy="39" r="39" fill="url(#paint0_linear_109_6)"/>
<path fill-rule="evenodd" clip-rule="evenodd" d="M15.0156 23.3606C14.6652 23.5741 14.2931 23.9724 14.1889 24.2458C14.0716 24.5533 13.9994 30.5173 14 39.8908C14.0006 54.5525 14.0128 55.0588 14.3789 55.6569C14.633 56.0719 14.9996 56.3418 15.4966 56.4792C15.9491 56.6043 18.8225 56.6842 22.8983 56.6847L29.5605 56.6859V57.3295V57.9734L26.9832 58.4157C24.0758 58.9148 23.4801 59.1535 22.9392 60.0376C22.1325 61.355 22.6449 63.0963 24.0318 63.7517C24.7531 64.0927 24.835 64.0912 27.0211 63.693C30.7473 63.0145 32.5948 62.8483 36.4659 62.8432C40.1477 62.8386 43.3403 63.1371 46.4525 63.7775C47.238 63.9391 48.1374 64.0152 48.451 63.9466C49.8476 63.6411 50.7554 62.1238 50.3711 60.7376C49.9671 59.2802 48.906 58.7856 44.9867 58.2276C43.4157 58.004 43.3918 57.9923 43.3333 57.4173C43.2802 56.8948 43.15 56.7896 42.0851 56.4065C39.5206 55.4845 37.4525 53.9101 35.9183 51.7122L34.9272 50.2922H25.7276H16.5279V37.8923V25.4924H36.5631H56.5983L56.5997 30.9658C56.6008 36.1575 56.6213 36.469 56.9982 37.0204C57.5939 37.8917 58.1733 39.0368 58.5668 40.1204C58.9158 41.0818 58.9185 41.0252 58.9255 32.7126L58.9325 24.3361L58.3649 23.7033L57.7973 23.0705L36.725 23.0213C15.9349 22.9729 15.6441 22.9774 15.0156 23.3606ZM43.909 33.2857C42.6009 33.5574 39.7553 35.0213 39.839 35.3798C39.8755 35.5361 39.9534 36.1218 40.0121 36.6814C40.0708 37.2409 40.1416 37.6986 40.1693 37.6986C40.1971 37.6986 40.6651 37.4002 41.2092 37.0354C43.9898 35.1717 47.3792 34.8987 50.3738 36.2976C51.7813 36.9549 53.8475 39.0149 54.4997 40.411C56.1766 44.0002 55.4956 47.9564 52.7341 50.67C49.5792 53.7702 45.037 54.1885 41.307 51.7225C40.2982 51.0556 38.7028 49.3351 38.7028 48.9143C38.7028 48.8149 38.2556 48.3086 37.7088 47.7892L36.7148 46.845L36.4488 44.839C36.3023 43.7356 36.1807 42.798 36.1784 42.7554C36.176 42.7128 35.9041 43.0493 35.574 43.5031C35.0072 44.2825 34.9813 44.3941 35.1115 45.5099C35.7421 50.9219 39.8925 54.9914 45.4136 55.611C46.7498 55.7609 48.7756 55.4839 50.3347 54.9381L51.4059 54.5632L52.1548 55.237C52.8848 55.8939 53.7249 56.1159 53.9723 55.7172C54.0385 55.6106 54.1708 55.5234 54.2663 55.5234C54.3618 55.5234 55.2737 56.603 56.2927 57.9224C58.3593 60.5983 59.072 61.09 60.5281 60.8449C62.4789 60.5165 63.6293 58.1723 62.6359 56.5495C62.2794 55.9671 60.5157 54.4642 58.4797 53.0078C57.7444 52.4818 57.6195 52.3076 57.7732 52.0214C58.1237 51.3691 57.9726 50.6878 57.3202 49.9787L56.6804 49.2834L57.1486 47.8986C58.0846 45.1298 57.8714 41.9728 56.5672 39.291C55.7051 37.518 53.2935 35.1079 51.5306 34.2578C49.2188 33.1429 46.3551 32.7777 43.909 33.2857ZM29.4802 34.647C29.3242 34.8867 28.5704 36.4343 27.8054 38.086C27.0402 39.7378 26.3469 41.1595 26.2647 41.2455C26.1824 41.3315 25.9157 40.852 25.6722 40.1799C24.995 38.3108 24.9312 38.2798 21.7583 38.2798C19.3058 38.2798 19.0203 38.316 18.6631 38.6718C18.3531 38.9806 18.3126 39.1437 18.4725 39.4413C18.6561 39.7829 18.9287 39.824 21.3313 39.8728L23.9873 39.9267L24.7861 41.961C25.5364 43.8714 25.6183 43.9954 26.1302 43.9954C26.6484 43.9954 26.7595 43.8146 28.3567 40.3676C29.2812 38.3726 30.0974 36.8032 30.1703 36.8802C30.2431 36.9573 30.9194 38.3224 31.673 39.9137C33.0177 42.7533 33.3511 43.2248 33.8718 43.0237C34.0148 42.9685 34.7882 41.9678 35.5905 40.7999C36.3929 39.632 37.0996 38.6745 37.1609 38.6719C37.2221 38.6694 37.4649 40.3446 37.7003 42.3944C38.1399 46.2229 38.3122 46.7631 39.0214 46.5337C39.2206 46.4693 40.3 44.9347 41.42 43.1233L43.4564 39.8298H45.2024C46.8422 39.8298 46.9824 39.8621 47.5068 40.3626C47.9474 40.783 48.2503 40.8954 48.9437 40.8954C49.6901 40.8954 49.9075 40.8003 50.3897 40.2626C51.9155 38.5619 50.076 36.1842 47.9729 37.1386C47.712 37.257 47.3868 37.5622 47.25 37.8167C47.0127 38.2587 46.9102 38.2798 45.0133 38.2798C43.3967 38.2798 42.9532 38.3432 42.6392 38.6189C42.427 38.8054 41.618 39.9854 40.8413 41.241C40.0648 42.4969 39.3998 43.4947 39.3634 43.4587C39.3272 43.4225 39.1092 41.7847 38.8792 39.8191C38.6491 37.8536 38.3698 36.1323 38.2585 35.994C37.7849 35.4055 37.241 35.8746 35.5059 38.3676L33.7594 40.8772L32.1556 37.5441C30.8605 34.8522 30.4761 34.2111 30.1579 34.2111C29.9412 34.2111 29.6364 34.4073 29.4802 34.647ZM19.3971 52.568C19.7999 53.093 19.698 54.105 19.2078 54.4467C18.6192 54.8575 18.0459 54.8255 17.5373 54.3534C16.9345 53.7942 16.979 52.9429 17.638 52.4265C18.2251 51.9666 18.9825 52.0274 19.3971 52.568ZM22.7038 52.568C23.0686 53.0434 22.997 53.9236 22.5579 54.3609C21.7565 55.1592 20.4183 54.562 20.4183 53.4063C20.4183 52.2555 22.0151 51.6698 22.7038 52.568ZM25.5685 52.2628C27.0007 52.9128 26.0351 55.1555 24.5475 54.6343C23.5838 54.2968 23.4529 52.7063 24.3529 52.2742C24.9312 51.9966 24.9808 51.9962 25.5685 52.2628Z" fill="white"/>
<defs>
<linearGradient id="paint0_linear_109_6" x1="39" y1="0" x2="39" y2="78" gradientUnits="userSpaceOnUse">
<stop stop-color="#3C3CA0"/>
<stop offset="1" stop-color="#2AB3D3"/>
</linearGradient>
</defs>
</svg>
