<svg width="78" height="78" viewBox="0 0 78 78" fill="none" xmlns="http://www.w3.org/2000/svg">
<circle cx="39" cy="39" r="39" fill="#C4C4C4"/>
<circle cx="39" cy="39" r="39" fill="url(#paint0_linear_109_4)"/>
<path fill-rule="evenodd" clip-rule="evenodd" d="M37.7469 30.3859C29.8473 38.2982 23.474 44.8623 23.5841 44.9732C23.6946 45.0838 26.3899 45.2318 29.5738 45.3019L35.3632 45.4293L29.557 57.787C26.3637 64.5838 23.7493 70.3537 23.7472 70.6093C23.7449 70.8804 23.8938 71.0396 24.1044 70.9915C24.4505 70.9125 51.7639 42.6188 52.935 41.126C53.2479 40.7272 53.4416 40.2997 53.3652 40.1758C53.2889 40.0523 50.5429 39.9511 47.2626 39.9511C43.9823 39.9511 41.2987 39.9096 41.2987 39.8586C41.2987 39.8076 43.8747 34.5519 47.0232 28.1789C50.1717 21.8058 52.7477 16.4584 52.7477 16.2958C52.7477 16.133 52.6042 16 52.4289 16C52.2534 16 45.6465 22.4737 37.7469 30.3859ZM35.0869 19.067C29.7071 19.9165 25.3707 22.0617 21.4895 25.7932C18.114 29.0386 15.8428 32.8771 14.6602 37.3348C14.0944 39.4688 14 40.3506 14 43.5183C14 46.6859 14.0944 47.5678 14.6602 49.7017C15.4014 52.4954 16.8381 55.5565 18.5094 57.9022C19.6421 59.4919 23.8187 63.6474 24.2836 63.6474C24.4222 63.6474 24.9247 62.7925 25.4 61.7479L26.2645 59.8483L24.177 57.7238C16.2392 49.6447 16.3239 37.0548 24.3693 29.1221C28.5561 24.9941 34.3135 22.8755 40.1538 23.314L41.6803 23.4284L43.4445 21.6351C44.6721 20.3874 45.0977 19.8024 44.8438 19.7114C42.9265 19.025 37.5859 18.6723 35.0869 19.067ZM51.0118 24.828L50.0216 26.7986L51.3919 27.9167C57.6968 33.0601 60.2807 42.0639 57.6894 49.8595C56.6562 52.9675 55.1665 55.3529 52.7419 57.7812C48.3699 62.1596 42.552 64.2704 36.5918 63.6408L34.5564 63.4257L32.8475 65.129C31.9074 66.0659 31.1344 66.9017 31.1301 66.9865C31.1255 67.0714 32.0664 67.3562 33.2207 67.6192C36.4292 68.3505 41.4144 68.2503 44.6744 67.3886C48.8767 66.2782 52.2829 64.3466 55.5105 61.2434C58.886 57.998 61.1572 54.1594 62.3398 49.7017C62.9056 47.5678 63 46.6859 63 43.5183C63 40.3506 62.9056 39.4688 62.3398 37.3348C61.5981 34.5394 60.1573 31.4706 58.497 29.1502C57.3495 27.5465 54.2656 24.4384 52.82 23.4289L52.0018 22.8571L51.0118 24.828Z" fill="white"/>
<defs>
<linearGradient id="paint0_linear_109_4" x1="39" y1="0" x2="39" y2="78" gradientUnits="userSpaceOnUse">
<stop stop-color="#3C3CA0"/>
<stop offset="1" stop-color="#2AB3D3"/>
</linearGradient>
</defs>
</svg>
