<svg width="41" height="46" viewBox="0 0 41 46" fill="none" xmlns="http://www.w3.org/2000/svg">
<path fill-rule="evenodd" clip-rule="evenodd" d="M20.1041 0.0392225C20.0288 0.0669391 18.6956 0.550293 17.1412 1.11338C12.0296 2.96524 11.2515 3.24733 7.61458 4.56756C5.63404 5.2865 3.38798 6.10081 2.62334 6.37711C1.85871 6.65341 1.16841 6.91882 1.08937 6.96691C0.896378 7.0843 0.623661 7.39169 0.544576 7.58096C0.433675 7.84646 0.393426 8.13215 0.278787 9.46843C0.0450878 12.1922 -0.0175875 13.7147 0.00397283 16.1468C0.0237098 18.3771 0.0886186 19.6269 0.27865 21.4349C1.24563 30.6365 4.6955 37.6088 10.4407 41.9727C12.6519 43.6523 15.3358 44.9426 18.0073 45.6103C20.0864 46.1299 20.8966 46.1299 22.9757 45.6103C25.681 44.9341 28.3353 43.6519 30.6135 41.9208C35.8938 37.9083 39.2914 31.4847 40.4777 23.2705C41.0921 19.016 41.161 14.7731 40.7025 9.42284C40.5825 8.02238 40.546 7.7711 40.4298 7.54641C40.334 7.36114 40.0669 7.07235 39.8936 6.96668C39.8146 6.9185 39.0115 6.61202 38.109 6.28567C37.2064 5.95927 34.6322 5.0257 32.3884 4.21107C30.1446 3.39644 27.2525 2.34708 25.9613 1.87923C24.6702 1.41133 22.9883 0.800289 22.2236 0.521345C21.0724 0.101403 20.7824 0.0120074 20.5371 0.00156807C20.3741 -0.00540667 20.1793 0.0115515 20.1041 0.0392225ZM23.6695 4.11621C25.3687 4.73281 27.5692 5.53094 28.5595 5.88993C29.5498 6.24888 31.9804 7.13134 33.961 7.85093C35.9415 8.57051 37.615 9.1784 37.6799 9.20175C37.7951 9.24323 37.7992 9.25914 37.8519 9.86918C38.6352 18.9363 37.6658 26.3557 34.9634 31.9754C32.877 36.3144 29.7565 39.5588 25.8018 41.5009C24.2758 42.2504 22.5509 42.8171 21.0511 43.0618C20.5345 43.1461 20.4621 43.1479 20.0568 43.0871C17.5603 42.7123 14.6927 41.5007 12.4732 39.883C7.38512 36.1744 4.26001 30.1149 3.24098 21.9819C2.79911 18.4553 2.75635 14.6387 3.10888 10.1978C3.14968 9.68382 3.18765 9.25759 3.19321 9.25057C3.19877 9.24359 3.70355 9.05628 4.31498 8.83432C4.92638 8.61236 7.55988 7.65654 10.1672 6.71031C12.7745 5.76407 16.1384 4.54203 17.6426 3.99467C19.1468 3.44732 20.4231 2.99847 20.4787 2.99729C20.5343 2.9961 21.9702 3.4996 23.6695 4.11621ZM18.0352 10.8597C17.1236 11.0611 16.3439 11.5009 15.7383 12.1551C15.3917 12.5294 15.2317 12.7701 14.9993 13.2668C14.6308 14.0542 14.6409 13.9615 14.6132 16.8306L14.5886 19.3835L14.0872 19.4103C13.8115 19.425 13.5038 19.4637 13.4035 19.4963C12.7112 19.7211 12.199 20.2237 11.9703 20.903C11.878 21.1767 11.8765 21.2588 11.8765 25.8699C11.8765 30.0473 11.8845 30.5854 11.9499 30.806C12.0585 31.1724 12.1793 31.3838 12.4339 31.653C12.7214 31.9571 13.0297 32.1559 13.3849 32.2665C13.652 32.3496 13.917 32.3529 20.4873 32.3529C27.996 32.3529 27.5207 32.3703 28.0385 32.0765C28.3119 31.9213 28.7385 31.4879 28.8679 31.2339C29.1149 30.749 29.1065 30.9369 29.1065 25.8754C29.1065 21.4072 29.1025 21.1796 29.0201 20.9148C28.7929 20.1847 28.1317 19.5955 27.3794 19.4528C27.2444 19.4272 26.9727 19.4063 26.7756 19.4063H26.4172L26.4164 17.3435C26.4154 14.4655 26.3763 14.0965 25.9852 13.2668C25.7379 12.7422 25.5673 12.4914 25.1892 12.0959C24.6691 11.552 24.0553 11.1794 23.2851 10.9401L22.8846 10.8156L20.6055 10.8055C18.7818 10.7974 18.2682 10.8082 18.0352 10.8597ZM22.6895 13.7846C22.9877 13.9224 23.2917 14.249 23.406 14.5544C23.4963 14.7958 23.4999 14.8944 23.4999 17.1059V19.4063H20.4915H17.4831V17.1099C17.4831 15.1582 17.4936 14.7836 17.5533 14.614C17.7022 14.1914 18.0028 13.8884 18.4172 13.7433C18.6228 13.6714 18.835 13.6645 20.5599 13.6743C22.4191 13.6849 22.4805 13.688 22.6895 13.7846ZM20.8082 22.3234C21.3549 22.4271 21.8867 22.8422 22.1165 23.3447C22.2826 23.7082 22.3173 24.2493 22.1985 24.6268C22.0979 24.9469 21.8452 25.3116 21.6 25.4907L21.4109 25.6288L21.3956 27.4219L21.3803 29.215L21.2315 29.3479C21.0832 29.4804 21.0802 29.4809 20.4915 29.4809C19.9028 29.4809 19.8998 29.4804 19.7515 29.3479L19.6026 29.215L19.5898 27.4218L19.5769 25.6286L19.4105 25.5147C19.178 25.3557 18.882 24.9369 18.7857 24.6308C18.667 24.2534 18.6991 23.7077 18.8604 23.3608C19.0946 22.8572 19.6261 22.4278 20.1413 22.3259C20.4116 22.2725 20.5374 22.272 20.8082 22.3234Z" fill="black"/>
<path fill-rule="evenodd" clip-rule="evenodd" d="M20.1041 0.0392225C20.0288 0.0669391 18.6956 0.550293 17.1412 1.11338C12.0296 2.96524 11.2515 3.24733 7.61458 4.56756C5.63404 5.2865 3.38798 6.10081 2.62334 6.37711C1.85871 6.65341 1.16841 6.91882 1.08937 6.96691C0.896378 7.0843 0.623661 7.39169 0.544576 7.58096C0.433675 7.84646 0.393426 8.13215 0.278787 9.46843C0.0450878 12.1922 -0.0175875 13.7147 0.00397283 16.1468C0.0237098 18.3771 0.0886186 19.6269 0.27865 21.4349C1.24563 30.6365 4.6955 37.6088 10.4407 41.9727C12.6519 43.6523 15.3358 44.9426 18.0073 45.6103C20.0864 46.1299 20.8966 46.1299 22.9757 45.6103C25.681 44.9341 28.3353 43.6519 30.6135 41.9208C35.8938 37.9083 39.2914 31.4847 40.4777 23.2705C41.0921 19.016 41.161 14.7731 40.7025 9.42284C40.5825 8.02238 40.546 7.7711 40.4298 7.54641C40.334 7.36114 40.0669 7.07235 39.8936 6.96668C39.8146 6.9185 39.0115 6.61202 38.109 6.28567C37.2064 5.95927 34.6322 5.0257 32.3884 4.21107C30.1446 3.39644 27.2525 2.34708 25.9613 1.87923C24.6702 1.41133 22.9883 0.800289 22.2236 0.521345C21.0724 0.101403 20.7824 0.0120074 20.5371 0.00156807C20.3741 -0.00540667 20.1793 0.0115515 20.1041 0.0392225ZM23.6695 4.11621C25.3687 4.73281 27.5692 5.53094 28.5595 5.88993C29.5498 6.24888 31.9804 7.13134 33.961 7.85093C35.9415 8.57051 37.615 9.1784 37.6799 9.20175C37.7951 9.24323 37.7992 9.25914 37.8519 9.86918C38.6352 18.9363 37.6658 26.3557 34.9634 31.9754C32.877 36.3144 29.7565 39.5588 25.8018 41.5009C24.2758 42.2504 22.5509 42.8171 21.0511 43.0618C20.5345 43.1461 20.4621 43.1479 20.0568 43.0871C17.5603 42.7123 14.6927 41.5007 12.4732 39.883C7.38512 36.1744 4.26001 30.1149 3.24098 21.9819C2.79911 18.4553 2.75635 14.6387 3.10888 10.1978C3.14968 9.68382 3.18765 9.25759 3.19321 9.25057C3.19877 9.24359 3.70355 9.05628 4.31498 8.83432C4.92638 8.61236 7.55988 7.65654 10.1672 6.71031C12.7745 5.76407 16.1384 4.54203 17.6426 3.99467C19.1468 3.44732 20.4231 2.99847 20.4787 2.99729C20.5343 2.9961 21.9702 3.4996 23.6695 4.11621ZM18.0352 10.8597C17.1236 11.0611 16.3439 11.5009 15.7383 12.1551C15.3917 12.5294 15.2317 12.7701 14.9993 13.2668C14.6308 14.0542 14.6409 13.9615 14.6132 16.8306L14.5886 19.3835L14.0872 19.4103C13.8115 19.425 13.5038 19.4637 13.4035 19.4963C12.7112 19.7211 12.199 20.2237 11.9703 20.903C11.878 21.1767 11.8765 21.2588 11.8765 25.8699C11.8765 30.0473 11.8845 30.5854 11.9499 30.806C12.0585 31.1724 12.1793 31.3838 12.4339 31.653C12.7214 31.9571 13.0297 32.1559 13.3849 32.2665C13.652 32.3496 13.917 32.3529 20.4873 32.3529C27.996 32.3529 27.5207 32.3703 28.0385 32.0765C28.3119 31.9213 28.7385 31.4879 28.8679 31.2339C29.1149 30.749 29.1065 30.9369 29.1065 25.8754C29.1065 21.4072 29.1025 21.1796 29.0201 20.9148C28.7929 20.1847 28.1317 19.5955 27.3794 19.4528C27.2444 19.4272 26.9727 19.4063 26.7756 19.4063H26.4172L26.4164 17.3435C26.4154 14.4655 26.3763 14.0965 25.9852 13.2668C25.7379 12.7422 25.5673 12.4914 25.1892 12.0959C24.6691 11.552 24.0553 11.1794 23.2851 10.9401L22.8846 10.8156L20.6055 10.8055C18.7818 10.7974 18.2682 10.8082 18.0352 10.8597ZM22.6895 13.7846C22.9877 13.9224 23.2917 14.249 23.406 14.5544C23.4963 14.7958 23.4999 14.8944 23.4999 17.1059V19.4063H20.4915H17.4831V17.1099C17.4831 15.1582 17.4936 14.7836 17.5533 14.614C17.7022 14.1914 18.0028 13.8884 18.4172 13.7433C18.6228 13.6714 18.835 13.6645 20.5599 13.6743C22.4191 13.6849 22.4805 13.688 22.6895 13.7846ZM20.8082 22.3234C21.3549 22.4271 21.8867 22.8422 22.1165 23.3447C22.2826 23.7082 22.3173 24.2493 22.1985 24.6268C22.0979 24.9469 21.8452 25.3116 21.6 25.4907L21.4109 25.6288L21.3956 27.4219L21.3803 29.215L21.2315 29.3479C21.0832 29.4804 21.0802 29.4809 20.4915 29.4809C19.9028 29.4809 19.8998 29.4804 19.7515 29.3479L19.6026 29.215L19.5898 27.4218L19.5769 25.6286L19.4105 25.5147C19.178 25.3557 18.882 24.9369 18.7857 24.6308C18.667 24.2534 18.6991 23.7077 18.8604 23.3608C19.0946 22.8572 19.6261 22.4278 20.1413 22.3259C20.4116 22.2725 20.5374 22.272 20.8082 22.3234Z" fill="url(#paint0_linear_1_98)"/>
<defs>
<linearGradient id="paint0_linear_1_98" x1="20.5" y1="0" x2="20.5" y2="46" gradientUnits="userSpaceOnUse">
<stop stop-color="#3C3CA0"/>
<stop offset="1" stop-color="#2AB3D3"/>
</linearGradient>
</defs>
</svg>
