<svg width="78" height="78" viewBox="0 0 78 78" fill="none" xmlns="http://www.w3.org/2000/svg">
<circle cx="39" cy="39" r="39" fill="#C4C4C4"/>
<circle cx="39" cy="39" r="39" fill="url(#paint0_linear_109_5)"/>
<path fill-rule="evenodd" clip-rule="evenodd" d="M28.2061 19.0315C27.7757 19.1003 27.3352 19.2406 26.9456 19.4329C25.6552 20.0696 24.7729 21.2896 24.5558 22.737C24.4772 23.2615 24.4789 23.6086 24.5625 24.1037C24.8958 26.0789 26.4128 27.5426 28.3634 27.7708C29.6586 27.9223 30.9931 27.4399 31.9077 26.4895C32.4661 25.9092 32.8258 25.269 33.0316 24.4891C33.1266 24.1292 33.1398 23.9962 33.1398 23.3975C33.1398 22.7973 33.1267 22.6662 33.0307 22.3021C32.5218 20.373 30.9127 19.0649 28.9776 19.0075C28.6895 18.9989 28.3423 19.0098 28.2061 19.0315ZM54.9359 19.0314C53.9157 19.1951 52.9261 19.7468 52.2935 20.5045C51.8265 21.064 51.5429 21.6115 51.3607 22.3058C51.2666 22.6647 51.2531 22.8006 51.2531 23.3975C51.2529 24.0052 51.2652 24.125 51.3657 24.5004C51.5067 25.0268 51.6987 25.4526 51.986 25.8767C53.2187 27.6959 55.5458 28.3129 57.4834 27.3344C58.634 26.7534 59.439 25.7292 59.7762 24.4173C59.8595 24.0928 59.8734 23.9392 59.8702 23.3762C59.867 22.8019 59.8519 22.6607 59.7548 22.2945C59.3388 20.7262 58.1606 19.5268 56.6501 19.1339C56.1787 19.0113 55.3648 18.9626 54.9359 19.0314ZM41.6857 21.1608C41.2025 21.2117 40.5897 21.3872 40.1418 21.603C38.4052 22.4396 37.3149 24.1753 37.3149 26.1033C37.3149 28.1773 38.5904 30.0314 40.52 30.7624C42.5979 31.5495 45.0366 30.739 46.2558 28.856C46.7985 28.0179 47.077 27.0855 47.0766 26.1083C47.0758 23.9859 45.7725 22.1251 43.7801 21.4014C43.1943 21.1886 42.3468 21.0913 41.6857 21.1608ZM25.9561 28.8357C23.1145 29.0672 20.7876 31.349 20.4294 34.2551C20.3633 34.7912 20.3962 35.4173 20.5094 35.779C20.7482 36.5418 21.441 37.203 22.2354 37.4261C22.4848 37.4962 22.8105 37.5017 26.6733 37.5017H30.842L31.0604 37.4012C31.3354 37.2748 31.6222 36.9662 31.7207 36.6909C32.0725 35.7072 32.2948 35.2408 32.7259 34.5828C33.2589 33.7691 33.9701 33.0243 34.8221 32.3874C35.4007 31.9549 35.5967 31.6044 35.5392 31.1054C35.4855 30.6398 35.2534 30.3295 34.64 29.9029C33.7284 29.2689 32.7729 28.9265 31.638 28.8268C31.1274 28.782 26.5266 28.7891 25.9561 28.8357ZM52.6781 28.8329C51.6688 28.924 50.7206 29.2595 49.8604 29.8298C49.1817 30.2797 48.9079 30.6262 48.8526 31.1051C48.8218 31.3712 48.9031 31.6868 49.0648 31.9287C49.1179 32.0082 49.3737 32.2362 49.6333 32.4354C50.2634 32.9188 50.5961 33.2246 50.9732 33.6665C51.7345 34.5589 52.2342 35.4317 52.6261 36.5539C52.7687 36.9622 53.0111 37.2541 53.3286 37.4L53.5498 37.5017H57.7394C61.6877 37.5017 61.9434 37.4972 62.1786 37.4234C62.72 37.2535 63.176 36.9394 63.4861 36.5227C63.7338 36.19 63.815 36.0226 63.9241 35.6193C64.0041 35.3237 64.0115 35.2184 63.9889 34.6894C63.8807 32.1485 62.2297 29.9451 59.8133 29.1163C59.3841 28.9691 58.9478 28.8822 58.3829 28.8314C57.834 28.7819 53.2291 28.7832 52.6781 28.8329ZM38.7813 32.2444C36.8551 32.4695 35.0776 33.533 33.9503 35.1348C33.4504 35.8452 32.9845 36.9209 32.8145 37.7574C32.7154 38.2453 32.6525 38.9704 32.6789 39.3224C32.7712 40.5534 33.4958 41.4874 34.6755 41.896C34.8972 41.9728 35.1805 41.9758 42.1959 41.9758C49.2015 41.9758 49.4948 41.9727 49.7163 41.8963C50.5187 41.6194 51.0846 41.1264 51.4348 40.3992C51.7052 39.8377 51.7747 39.3037 51.6845 38.4817C51.583 37.5564 51.394 36.9113 50.9732 36.0529C49.9252 33.9156 47.9251 32.51 45.5476 32.2401C45.0882 32.188 39.2324 32.1917 38.7813 32.2444ZM56.0845 41.0588C55.4912 41.1893 55.0154 41.4086 54.6181 41.7346C54.4311 41.888 51.8764 44.3842 49.1654 47.0625L48.6774 47.5446L48.3414 47.3051C47.9643 47.0364 47.6066 46.8598 47.1533 46.7187L46.8464 46.6232L42.0911 46.5991L37.3359 46.575L37.0217 46.4775C36.8488 46.4239 36.4339 46.249 36.0995 46.0889C35.7651 45.9288 35.2952 45.7283 35.0554 45.6434C32.5716 44.7641 29.8461 44.9099 27.3571 46.055C25.5252 46.8978 23.8649 48.3563 22.8168 50.0435C22.595 50.4007 22.5314 50.475 22.4627 50.4576C22.4166 50.446 22.2092 50.389 22.0018 50.331C21.1552 50.0941 20.2056 50.2349 19.4142 50.7149C19.0503 50.9356 14.2763 55.7663 14.112 56.08C14.015 56.2651 14.0003 56.3435 14 56.6766C13.9997 57.0177 14.0127 57.084 14.1174 57.2761C14.203 57.4331 15.7608 59.0423 19.8153 63.162C26.0348 69.4815 25.5037 68.9912 26.1286 68.9912C26.6919 68.9912 26.6062 69.0636 29.3173 66.2976C30.6447 64.9433 31.7919 63.7427 31.8667 63.6296C32.0471 63.3565 32.2638 62.8728 32.3473 62.5569C32.4548 62.1505 32.4768 61.51 32.3978 61.0877L32.3302 60.7263L32.5497 60.4984C33.1075 59.9191 33.9097 59.4435 34.7033 59.2214L35.1154 59.1061L42.0073 59.083C49.4987 59.0578 48.9447 59.0764 49.5478 58.8304C49.8353 58.7131 50.2656 58.4236 50.5123 58.1815C50.616 58.0798 51.2123 57.3544 51.8374 56.5696C53.2639 54.7786 53.5058 54.4753 54.8452 52.799C55.9863 51.3709 56.8459 50.2931 57.6161 49.3252C58.2156 48.5717 59.0401 47.5418 59.4446 47.0411C59.9617 46.4011 60.2068 45.8773 60.3184 45.1739C60.3864 44.745 60.3473 44.0261 60.2342 43.6236C59.7187 41.7909 57.8912 40.6614 56.0845 41.0588ZM57.4813 43.1837C57.7892 43.3379 58.0705 43.6255 58.2262 43.9453C58.3115 44.1205 58.3253 44.212 58.3256 44.5994C58.3259 45.018 58.3171 45.067 58.2003 45.2923C58.1311 45.4256 57.7635 45.9214 57.3833 46.3941C56.5933 47.3762 55.7622 48.4156 53.9482 50.6898C53.2472 51.5686 52.5586 52.4315 52.4181 52.6073C51.7076 53.4958 50.2584 55.314 49.7293 55.9805C49.1432 56.7188 49.0111 56.854 48.7686 56.9632C48.673 57.0061 47.2026 57.0223 41.7141 57.0406L34.7802 57.0638L34.3739 57.1582C33.2724 57.4143 32.4119 57.8641 31.595 58.6109C31.3882 58.7999 31.2021 58.9549 31.1814 58.9554C31.1175 58.9569 24.1595 51.8547 24.1595 51.788C24.1595 51.6879 24.6054 50.9609 24.9386 50.5177C25.1066 50.2943 25.4478 49.9093 25.6968 49.6624C27.2736 48.0986 29.2963 47.206 31.4495 47.1239C32.8133 47.072 33.9512 47.3164 35.2713 47.9449C35.9626 48.2739 36.2996 48.3976 36.8541 48.5257C37.2453 48.6161 37.3323 48.6181 41.9445 48.6417L46.6369 48.6657L46.9176 48.801C47.2622 48.967 47.5498 49.2517 47.6981 49.5735C47.7961 49.7862 47.8099 49.8691 47.8096 50.2424C47.8092 50.62 47.7961 50.6956 47.6943 50.9071C47.4767 51.3591 47.0298 51.7027 46.5369 51.7971C46.3942 51.8244 44.7917 51.8406 42.1797 51.8412C38.262 51.8421 38.0395 51.8462 37.8805 51.9203C37.233 52.2224 37.097 53.0695 37.615 53.5745C37.907 53.8592 37.6191 53.8431 42.3935 53.8422C45.9157 53.8417 46.7715 53.8305 46.994 53.7826C48.3098 53.4988 49.3304 52.5234 49.719 51.1783C49.8346 50.7781 49.8706 49.9996 49.7911 49.6176L49.7321 49.3338L50.6145 48.4706C51.0998 47.9958 51.7702 47.3369 52.1044 47.0064C52.4385 46.6759 53.2301 45.8977 53.8635 45.2772C54.497 44.6567 55.2009 43.9668 55.4277 43.7442C55.6546 43.5215 55.8987 43.3017 55.9703 43.2556C56.4054 42.975 57.0073 42.9464 57.4813 43.1837ZM21.8165 52.4218C21.946 52.4932 23.3481 53.892 26.1375 56.7326C30.1276 60.7959 30.27 60.9463 30.3595 61.1934C30.4884 61.5491 30.4652 62.0013 30.3025 62.3054C30.2218 62.456 29.5847 63.1328 28.1475 64.5943L26.107 66.6693L21.5615 62.0514C19.0616 59.5116 16.8477 57.2584 16.6417 57.0442L16.2674 56.6548L18.3176 54.5749C19.8773 52.9926 20.4161 52.4715 20.5692 52.3971C20.9601 52.2069 21.4442 52.2165 21.8165 52.4218ZM20.8706 54.8174C20.4669 55.0045 20.224 55.3472 20.1901 55.7776C20.1521 56.2589 20.3545 56.6588 20.7585 56.9003C20.931 57.0035 20.997 57.0174 21.3105 57.017C21.723 57.0164 21.9196 56.9352 22.1475 56.6712C22.3561 56.4295 22.4398 56.2058 22.4404 55.8883C22.4413 55.4144 22.1929 55.0202 21.7714 54.8264C21.5259 54.7135 21.1038 54.7092 20.8706 54.8174Z" fill="white"/>
<defs>
<linearGradient id="paint0_linear_109_5" x1="39" y1="0" x2="39" y2="78" gradientUnits="userSpaceOnUse">
<stop stop-color="#3C3CA0"/>
<stop offset="1" stop-color="#2AB3D3"/>
</linearGradient>
</defs>
</svg>
