<svg width="47" height="48" viewBox="0 0 47 48" fill="none" xmlns="http://www.w3.org/2000/svg">
<path d="M46.969 38.8602C46.8994 38.3187 46.7051 37.8008 46.4014 37.3471C46.0978 36.8933 45.693 36.5164 45.219 36.2455L33.871 29.7113C33.1931 29.3223 32.406 29.167 31.6311 29.2694C30.8562 29.3719 30.1366 29.7263 29.583 30.2782L27.348 32.5136C27.0628 32.8008 26.6813 32.9723 26.2771 32.995C25.873 33.0177 25.4747 32.8901 25.159 32.6366C21.5558 29.7248 18.2708 26.4396 15.359 22.8363C15.1053 22.521 14.9774 22.1232 14.9999 21.7191C15.0224 21.3151 15.1938 20.9335 15.481 20.6483L17.716 18.4135C18.2681 17.86 18.6227 17.1401 18.7252 16.3651C18.8276 15.5902 18.6723 14.8033 18.283 14.1254L11.749 2.77626C11.4767 2.30339 11.0992 1.8996 10.6457 1.59609C10.1922 1.29258 9.67491 1.09772 9.13392 1.02626C8.59293 0.954807 8.04273 1.00862 7.52598 1.18398C7.00924 1.35933 6.5398 1.65154 6.15403 2.03749L2.78605 5.40517C0.435052 7.75617 0.397034 12.0566 2.68003 17.5136C4.87403 22.7616 8.97004 28.5372 14.211 33.7792C19.452 39.0212 25.229 43.1154 30.477 45.3114C32.7197 46.3293 35.139 46.9013 37.6 46.9955C38.5086 47.046 39.4181 46.9132 40.2745 46.6054C41.1308 46.2975 41.9166 45.821 42.585 45.2035L45.953 41.8353C46.3407 41.4517 46.6342 40.9834 46.8105 40.4672C46.9868 39.951 47.041 39.4009 46.969 38.8602ZM33.1271 31.0004L44.475 37.5355C44.7271 37.6806 44.9457 37.8772 45.1165 38.1127C45.2872 38.3481 45.4063 38.6171 45.4659 38.9017C45.5254 39.1864 45.5242 39.4804 45.4622 39.7645C45.4002 40.0487 45.2788 40.3162 45.106 40.5502L30.024 31.9433L30.636 31.3305C30.9575 31.0097 31.3755 30.8037 31.8257 30.744C32.2759 30.6844 32.7332 30.7744 33.1271 31.0004ZM8.94404 2.50527C9.25863 2.54578 9.55953 2.65888 9.8231 2.83534C10.0867 3.01181 10.3057 3.24692 10.4631 3.52236L17 14.8734C17.2261 15.2671 17.3163 15.7242 17.2568 16.1742C17.1974 16.6242 16.9915 17.0418 16.671 17.3632L16.108 17.9262L7.45304 2.89345C7.80551 2.63269 8.2326 2.49253 8.67103 2.49355C8.76226 2.49261 8.85346 2.49727 8.94404 2.5082V2.50527ZM41.5361 44.1513C39.6681 46.0183 35.849 45.9404 31.057 43.9364C25.984 41.8154 20.378 37.8365 15.27 32.7265C10.162 27.6165 6.18104 22.0123 4.06004 16.9393C2.06004 12.1473 1.97804 8.32737 3.84504 6.45937L6.34504 3.95937L15.013 19.0136L14.432 19.5956C13.8844 20.1404 13.5578 20.8682 13.5154 21.6395C13.4729 22.4109 13.7175 23.1707 14.202 23.7724C17.1796 27.4571 20.539 30.8161 24.224 33.7934C24.8257 34.2779 25.5854 34.5223 26.3567 34.4799C27.128 34.4374 27.8563 34.111 28.401 33.5634L28.931 33.0336L44.031 41.6522L41.5361 44.1513Z" fill="url(#paint0_linear_1_219)"/>
<path d="M46.969 38.8602C46.8994 38.3187 46.7051 37.8008 46.4014 37.3471C46.0978 36.8933 45.693 36.5164 45.219 36.2455L33.871 29.7113C33.1931 29.3223 32.406 29.167 31.6311 29.2694C30.8562 29.3719 30.1366 29.7263 29.583 30.2782L27.348 32.5136C27.0628 32.8008 26.6813 32.9723 26.2771 32.995C25.873 33.0177 25.4747 32.8901 25.159 32.6366C21.5558 29.7248 18.2708 26.4396 15.359 22.8363C15.1053 22.521 14.9774 22.1232 14.9999 21.7191C15.0224 21.3151 15.1938 20.9335 15.481 20.6483L17.716 18.4135C18.2681 17.86 18.6227 17.1401 18.7252 16.3651C18.8276 15.5902 18.6723 14.8033 18.283 14.1254L11.749 2.77626C11.4767 2.30339 11.0992 1.8996 10.6457 1.59609C10.1922 1.29258 9.67491 1.09772 9.13392 1.02626C8.59293 0.954807 8.04273 1.00862 7.52598 1.18398C7.00924 1.35933 6.5398 1.65154 6.15403 2.03749L2.78605 5.40517C0.435052 7.75617 0.397034 12.0566 2.68003 17.5136C4.87403 22.7616 8.97004 28.5372 14.211 33.7792C19.452 39.0212 25.229 43.1154 30.477 45.3114C32.7197 46.3293 35.139 46.9013 37.6 46.9955C38.5086 47.046 39.4181 46.9132 40.2745 46.6054C41.1308 46.2975 41.9166 45.821 42.585 45.2035L45.953 41.8353C46.3407 41.4517 46.6342 40.9834 46.8105 40.4672C46.9868 39.951 47.041 39.4009 46.969 38.8602ZM33.1271 31.0004L44.475 37.5355C44.7271 37.6806 44.9457 37.8772 45.1165 38.1127C45.2872 38.3481 45.4063 38.6171 45.4659 38.9017C45.5254 39.1864 45.5242 39.4804 45.4622 39.7645C45.4002 40.0487 45.2788 40.3162 45.106 40.5502L30.024 31.9433L30.636 31.3305C30.9575 31.0097 31.3755 30.8037 31.8257 30.744C32.2759 30.6844 32.7332 30.7744 33.1271 31.0004ZM8.94404 2.50527C9.25863 2.54578 9.55953 2.65888 9.8231 2.83534C10.0867 3.01181 10.3057 3.24692 10.4631 3.52236L17 14.8734C17.2261 15.2671 17.3163 15.7242 17.2568 16.1742C17.1974 16.6242 16.9915 17.0418 16.671 17.3632L16.108 17.9262L7.45304 2.89345C7.80551 2.63269 8.2326 2.49253 8.67103 2.49355C8.76226 2.49261 8.85346 2.49727 8.94404 2.5082V2.50527ZM41.5361 44.1513C39.6681 46.0183 35.849 45.9404 31.057 43.9364C25.984 41.8154 20.378 37.8365 15.27 32.7265C10.162 27.6165 6.18104 22.0123 4.06004 16.9393C2.06004 12.1473 1.97804 8.32737 3.84504 6.45937L6.34504 3.95937L15.013 19.0136L14.432 19.5956C13.8844 20.1404 13.5578 20.8682 13.5154 21.6395C13.4729 22.4109 13.7175 23.1707 14.202 23.7724C17.1796 27.4571 20.539 30.8161 24.224 33.7934C24.8257 34.2779 25.5854 34.5223 26.3567 34.4799C27.128 34.4374 27.8563 34.111 28.401 33.5634L28.931 33.0336L44.031 41.6522L41.5361 44.1513Z" fill="url(#paint1_linear_1_219)"/>
<defs>
<linearGradient id="paint0_linear_1_219" x1="23.9974" y1="0.995605" x2="23.9974" y2="47.006" gradientUnits="userSpaceOnUse">
<stop stop-color="#F53B10"/>
<stop offset="1" stop-color="#F58F18"/>
</linearGradient>
<linearGradient id="paint1_linear_1_219" x1="10" y1="10" x2="23.956" y2="47.0216" gradientUnits="userSpaceOnUse">
<stop stop-color="#3C3CA0"/>
<stop offset="0.786458" stop-color="#2AB3D3"/>
</linearGradient>
</defs>
</svg>
